<?xml version="1.0" encoding="UTF-8" standalone="no"?>
<!DOCTYPE svg PUBLIC "-//W3C//DTD SVG 1.1//EN"
 "http://www.w3.org/Graphics/SVG/1.1/DTD/svg11.dtd">
<!-- Generated by graphviz version 2.40.1 (20161225.0304)
 -->
<!-- Title: controllers_diagram Pages: 1 -->
<svg width="1125pt" height="1014pt"
 viewBox="0.00 0.00 1125.00 1014.00" xmlns="http://www.w3.org/2000/svg" xmlns:xlink="http://www.w3.org/1999/xlink">
<g id="graph0" class="graph" transform="scale(1 1) rotate(0) translate(4 1010)">
<title>controllers_diagram</title>
<polygon fill="transparent" stroke="transparent" points="-4,4 -4,-1010 1121,-1010 1121,4 -4,4"/>
<!-- _diagram_info -->
<g id="node1" class="node">
<title>_diagram_info</title>
<text text-anchor="start" x="844" y="-633.6" font-family="Times,serif" font-size="13.00" fill="#000000">Controllers diagram</text>
<text text-anchor="start" x="844" y="-619.6" font-family="Times,serif" font-size="13.00" fill="#000000">Date: Apr 15 2019 &#45; 20:24</text>
<text text-anchor="start" x="844" y="-605.6" font-family="Times,serif" font-size="13.00" fill="#000000">Migration version: 20180912095635</text>
<text text-anchor="start" x="844" y="-591.6" font-family="Times,serif" font-size="13.00" fill="#000000">Generated by RailRoady 1.5.3</text>
<text text-anchor="start" x="844" y="-577.6" font-family="Times,serif" font-size="13.00" fill="#000000">http://railroady.prestonlee.com</text>
</g>
<!-- StaticPagesController -->
<g id="node2" class="node">
<title>StaticPagesController</title>
<path fill="none" stroke="#000000" d="M12,-495.6418C12,-495.6418 122,-495.6418 122,-495.6418 128,-495.6418 134,-501.6418 134,-507.6418 134,-507.6418 134,-576.6418 134,-576.6418 134,-582.6418 128,-588.6418 122,-588.6418 122,-588.6418 12,-588.6418 12,-588.6418 6,-588.6418 0,-582.6418 0,-576.6418 0,-576.6418 0,-507.6418 0,-507.6418 0,-501.6418 6,-495.6418 12,-495.6418"/>
<text text-anchor="middle" x="67" y="-573.4418" font-family="Times,serif" font-size="14.00" fill="#000000">StaticPagesController</text>
<polyline fill="none" stroke="#000000" points="0,-565.6418 134,-565.6418 "/>
<text text-anchor="start" x="8" y="-550.4418" font-family="Times,serif" font-size="14.00" fill="#000000">about</text>
<polyline fill="none" stroke="#000000" points="0,-542.6418 134,-542.6418 "/>
<polyline fill="none" stroke="#000000" points="0,-518.6418 134,-518.6418 "/>
<text text-anchor="start" x="8" y="-503.4418" font-family="Times,serif" font-size="14.00" fill="#000000">_layout</text>
</g>
<!-- AdministratorsController -->
<g id="node3" class="node">
<title>AdministratorsController</title>
<path fill="none" stroke="#000000" d="M619.6049,-591.6718C619.6049,-591.6718 749.6049,-591.6718 749.6049,-591.6718 755.6049,-591.6718 761.6049,-597.6718 761.6049,-603.6718 761.6049,-603.6718 761.6049,-702.6718 761.6049,-702.6718 761.6049,-708.6718 755.6049,-714.6718 749.6049,-714.6718 749.6049,-714.6718 619.6049,-714.6718 619.6049,-714.6718 613.6049,-714.6718 607.6049,-708.6718 607.6049,-702.6718 607.6049,-702.6718 607.6049,-603.6718 607.6049,-603.6718 607.6049,-597.6718 613.6049,-591.6718 619.6049,-591.6718"/>
<text text-anchor="middle" x="684.6049" y="-699.4718" font-family="Times,serif" font-size="14.00" fill="#000000">AdministratorsController</text>
<polyline fill="none" stroke="#000000" points="607.6049,-691.6718 761.6049,-691.6718 "/>
<text text-anchor="start" x="615.6049" y="-676.4718" font-family="Times,serif" font-size="14.00" fill="#000000">index</text>
<text text-anchor="start" x="615.6049" y="-661.4718" font-family="Times,serif" font-size="14.00" fill="#000000">loginProcess</text>
<text text-anchor="start" x="615.6049" y="-646.4718" font-family="Times,serif" font-size="14.00" fill="#000000">logout</text>
<polyline fill="none" stroke="#000000" points="607.6049,-638.6718 761.6049,-638.6718 "/>
<polyline fill="none" stroke="#000000" points="607.6049,-614.6718 761.6049,-614.6718 "/>
<text text-anchor="start" x="615.6049" y="-599.4718" font-family="Times,serif" font-size="14.00" fill="#000000">_layout</text>
</g>
<!-- ApplicationController -->
<g id="node4" class="node">
<title>ApplicationController</title>
<path fill="none" stroke="#000000" d="M336.3584,-443.1454C336.3584,-443.1454 448.3584,-443.1454 448.3584,-443.1454 454.3584,-443.1454 460.3584,-449.1454 460.3584,-455.1454 460.3584,-455.1454 460.3584,-540.1454 460.3584,-540.1454 460.3584,-546.1454 454.3584,-552.1454 448.3584,-552.1454 448.3584,-552.1454 336.3584,-552.1454 336.3584,-552.1454 330.3584,-552.1454 324.3584,-546.1454 324.3584,-540.1454 324.3584,-540.1454 324.3584,-455.1454 324.3584,-455.1454 324.3584,-449.1454 330.3584,-443.1454 336.3584,-443.1454"/>
<text text-anchor="middle" x="392.3584" y="-536.9454" font-family="Times,serif" font-size="14.00" fill="#000000">ApplicationController</text>
<polyline fill="none" stroke="#000000" points="324.3584,-529.1454 460.3584,-529.1454 "/>
<polyline fill="none" stroke="#000000" points="324.3584,-505.1454 460.3584,-505.1454 "/>
<polyline fill="none" stroke="#000000" points="324.3584,-481.1454 460.3584,-481.1454 "/>
<text text-anchor="start" x="332.3584" y="-465.9454" font-family="Times,serif" font-size="14.00" fill="#000000">_layout</text>
<text text-anchor="start" x="332.3584" y="-450.9454" font-family="Times,serif" font-size="14.00" fill="#000000">check_login</text>
</g>
<!-- ApplicationController&#45;&gt;StaticPagesController -->
<g id="edge1" class="edge">
<title>ApplicationController&#45;&gt;StaticPagesController</title>
<path fill="none" stroke="#000000" d="M324.1526,-506.9733C268.2509,-514.6185 189.5727,-525.3786 134.0015,-532.9786"/>
</g>
<!-- ApplicationController&#45;&gt;AdministratorsController -->
<g id="edge2" class="edge">
<title>ApplicationController&#45;&gt;AdministratorsController</title>
<path fill="none" stroke="#000000" d="M460.5084,-533.9131C504.53,-557.3403 561.9041,-587.8734 607.578,-612.1799"/>
</g>
<!-- PostCategoriesController -->
<g id="node5" class="node">
<title>PostCategoriesController</title>
<path fill="none" stroke="#000000" d="M270.4914,-714.7113C270.4914,-714.7113 399.4914,-714.7113 399.4914,-714.7113 405.4914,-714.7113 411.4914,-720.7113 411.4914,-726.7113 411.4914,-726.7113 411.4914,-915.7113 411.4914,-915.7113 411.4914,-921.7113 405.4914,-927.7113 399.4914,-927.7113 399.4914,-927.7113 270.4914,-927.7113 270.4914,-927.7113 264.4914,-927.7113 258.4914,-921.7113 258.4914,-915.7113 258.4914,-915.7113 258.4914,-726.7113 258.4914,-726.7113 258.4914,-720.7113 264.4914,-714.7113 270.4914,-714.7113"/>
<text text-anchor="middle" x="334.9914" y="-912.5113" font-family="Times,serif" font-size="14.00" fill="#000000">PostCategoriesController</text>
<polyline fill="none" stroke="#000000" points="258.4914,-904.7113 411.4914,-904.7113 "/>
<text text-anchor="start" x="266.4914" y="-889.5113" font-family="Times,serif" font-size="14.00" fill="#000000">confirm_deletion</text>
<text text-anchor="start" x="266.4914" y="-874.5113" font-family="Times,serif" font-size="14.00" fill="#000000">create</text>
<text text-anchor="start" x="266.4914" y="-859.5113" font-family="Times,serif" font-size="14.00" fill="#000000">delete</text>
<text text-anchor="start" x="266.4914" y="-844.5113" font-family="Times,serif" font-size="14.00" fill="#000000">edit</text>
<text text-anchor="start" x="266.4914" y="-829.5113" font-family="Times,serif" font-size="14.00" fill="#000000">index</text>
<text text-anchor="start" x="266.4914" y="-814.5113" font-family="Times,serif" font-size="14.00" fill="#000000">new</text>
<text text-anchor="start" x="266.4914" y="-799.5113" font-family="Times,serif" font-size="14.00" fill="#000000">required_parameters</text>
<text text-anchor="start" x="266.4914" y="-784.5113" font-family="Times,serif" font-size="14.00" fill="#000000">show</text>
<text text-anchor="start" x="266.4914" y="-769.5113" font-family="Times,serif" font-size="14.00" fill="#000000">update</text>
<polyline fill="none" stroke="#000000" points="258.4914,-761.7113 411.4914,-761.7113 "/>
<polyline fill="none" stroke="#000000" points="258.4914,-737.7113 411.4914,-737.7113 "/>
<text text-anchor="start" x="266.4914" y="-722.5113" font-family="Times,serif" font-size="14.00" fill="#000000">_layout</text>
</g>
<!-- ApplicationController&#45;&gt;PostCategoriesController -->
<g id="edge3" class="edge">
<title>ApplicationController&#45;&gt;PostCategoriesController</title>
<path fill="none" stroke="#000000" d="M382.6917,-552.168C374.8365,-596.4739 363.518,-660.3133 353.8776,-714.6877"/>
</g>
<!-- UsersController -->
<g id="node6" class="node">
<title>UsersController</title>
<path fill="none" stroke="#000000" d="M483.59,-685.8323C483.59,-685.8323 587.59,-685.8323 587.59,-685.8323 593.59,-685.8323 599.59,-691.8323 599.59,-697.8323 599.59,-697.8323 599.59,-886.8323 599.59,-886.8323 599.59,-892.8323 593.59,-898.8323 587.59,-898.8323 587.59,-898.8323 483.59,-898.8323 483.59,-898.8323 477.59,-898.8323 471.59,-892.8323 471.59,-886.8323 471.59,-886.8323 471.59,-697.8323 471.59,-697.8323 471.59,-691.8323 477.59,-685.8323 483.59,-685.8323"/>
<text text-anchor="middle" x="535.59" y="-883.6323" font-family="Times,serif" font-size="14.00" fill="#000000">UsersController</text>
<polyline fill="none" stroke="#000000" points="471.59,-875.8323 599.59,-875.8323 "/>
<text text-anchor="start" x="479.59" y="-860.6323" font-family="Times,serif" font-size="14.00" fill="#000000">confirm_deletion</text>
<text text-anchor="start" x="479.59" y="-845.6323" font-family="Times,serif" font-size="14.00" fill="#000000">create</text>
<text text-anchor="start" x="479.59" y="-830.6323" font-family="Times,serif" font-size="14.00" fill="#000000">delete</text>
<text text-anchor="start" x="479.59" y="-815.6323" font-family="Times,serif" font-size="14.00" fill="#000000">edit</text>
<text text-anchor="start" x="479.59" y="-800.6323" font-family="Times,serif" font-size="14.00" fill="#000000">index</text>
<text text-anchor="start" x="479.59" y="-785.6323" font-family="Times,serif" font-size="14.00" fill="#000000">new</text>
<text text-anchor="start" x="479.59" y="-770.6323" font-family="Times,serif" font-size="14.00" fill="#000000">show</text>
<text text-anchor="start" x="479.59" y="-755.6323" font-family="Times,serif" font-size="14.00" fill="#000000">update</text>
<polyline fill="none" stroke="#000000" points="471.59,-747.8323 599.59,-747.8323 "/>
<polyline fill="none" stroke="#000000" points="471.59,-723.8323 599.59,-723.8323 "/>
<text text-anchor="start" x="479.59" y="-708.6323" font-family="Times,serif" font-size="14.00" fill="#000000">_layout</text>
<text text-anchor="start" x="479.59" y="-693.6323" font-family="Times,serif" font-size="14.00" fill="#000000">required_parameters</text>
</g>
<!-- ApplicationController&#45;&gt;UsersController -->
<g id="edge4" class="edge">
<title>ApplicationController&#45;&gt;UsersController</title>
<path fill="none" stroke="#000000" d="M418.9635,-552.3831C437.1258,-589.7506 461.7835,-640.4816 483.7484,-685.6726"/>
</g>
<!-- MyPhotosController -->
<g id="node7" class="node">
<title>MyPhotosController</title>
<path fill="none" stroke="#000000" d="M104.115,-618.4498C104.115,-618.4498 208.115,-618.4498 208.115,-618.4498 214.115,-618.4498 220.115,-624.4498 220.115,-630.4498 220.115,-630.4498 220.115,-819.4498 220.115,-819.4498 220.115,-825.4498 214.115,-831.4498 208.115,-831.4498 208.115,-831.4498 104.115,-831.4498 104.115,-831.4498 98.115,-831.4498 92.115,-825.4498 92.115,-819.4498 92.115,-819.4498 92.115,-630.4498 92.115,-630.4498 92.115,-624.4498 98.115,-618.4498 104.115,-618.4498"/>
<text text-anchor="middle" x="156.115" y="-816.2498" font-family="Times,serif" font-size="14.00" fill="#000000">MyPhotosController</text>
<polyline fill="none" stroke="#000000" points="92.115,-808.4498 220.115,-808.4498 "/>
<text text-anchor="start" x="100.115" y="-793.2498" font-family="Times,serif" font-size="14.00" fill="#000000">confirm_deletion</text>
<text text-anchor="start" x="100.115" y="-778.2498" font-family="Times,serif" font-size="14.00" fill="#000000">create</text>
<text text-anchor="start" x="100.115" y="-763.2498" font-family="Times,serif" font-size="14.00" fill="#000000">delete</text>
<text text-anchor="start" x="100.115" y="-748.2498" font-family="Times,serif" font-size="14.00" fill="#000000">edit</text>
<text text-anchor="start" x="100.115" y="-733.2498" font-family="Times,serif" font-size="14.00" fill="#000000">index</text>
<text text-anchor="start" x="100.115" y="-718.2498" font-family="Times,serif" font-size="14.00" fill="#000000">new</text>
<text text-anchor="start" x="100.115" y="-703.2498" font-family="Times,serif" font-size="14.00" fill="#000000">show</text>
<text text-anchor="start" x="100.115" y="-688.2498" font-family="Times,serif" font-size="14.00" fill="#000000">update</text>
<polyline fill="none" stroke="#000000" points="92.115,-680.4498 220.115,-680.4498 "/>
<polyline fill="none" stroke="#000000" points="92.115,-656.4498 220.115,-656.4498 "/>
<text text-anchor="start" x="100.115" y="-641.2498" font-family="Times,serif" font-size="14.00" fill="#000000">_layout</text>
<text text-anchor="start" x="100.115" y="-626.2498" font-family="Times,serif" font-size="14.00" fill="#000000">required_parameters</text>
</g>
<!-- ApplicationController&#45;&gt;MyPhotosController -->
<g id="edge5" class="edge">
<title>ApplicationController&#45;&gt;MyPhotosController</title>
<path fill="none" stroke="#000000" d="M335.4716,-552.3797C300.7926,-585.7466 256.3804,-628.4783 220.427,-663.0713"/>
</g>
<!-- PostsController -->
<g id="node8" class="node">
<title>PostsController</title>
<path fill="none" stroke="#000000" d="M198.5554,-94.8054C198.5554,-94.8054 302.5554,-94.8054 302.5554,-94.8054 308.5554,-94.8054 314.5554,-100.8054 314.5554,-106.8054 314.5554,-106.8054 314.5554,-295.8054 314.5554,-295.8054 314.5554,-301.8054 308.5554,-307.8054 302.5554,-307.8054 302.5554,-307.8054 198.5554,-307.8054 198.5554,-307.8054 192.5554,-307.8054 186.5554,-301.8054 186.5554,-295.8054 186.5554,-295.8054 186.5554,-106.8054 186.5554,-106.8054 186.5554,-100.8054 192.5554,-94.8054 198.5554,-94.8054"/>
<text text-anchor="middle" x="250.5554" y="-292.6054" font-family="Times,serif" font-size="14.00" fill="#000000">PostsController</text>
<polyline fill="none" stroke="#000000" points="186.5554,-284.8054 314.5554,-284.8054 "/>
<text text-anchor="start" x="194.5554" y="-269.6054" font-family="Times,serif" font-size="14.00" fill="#000000">confirm_deletion</text>
<text text-anchor="start" x="194.5554" y="-254.6054" font-family="Times,serif" font-size="14.00" fill="#000000">create</text>
<text text-anchor="start" x="194.5554" y="-239.6054" font-family="Times,serif" font-size="14.00" fill="#000000">delete</text>
<text text-anchor="start" x="194.5554" y="-224.6054" font-family="Times,serif" font-size="14.00" fill="#000000">edit</text>
<text text-anchor="start" x="194.5554" y="-209.6054" font-family="Times,serif" font-size="14.00" fill="#000000">index</text>
<text text-anchor="start" x="194.5554" y="-194.6054" font-family="Times,serif" font-size="14.00" fill="#000000">new</text>
<text text-anchor="start" x="194.5554" y="-179.6054" font-family="Times,serif" font-size="14.00" fill="#000000">show</text>
<text text-anchor="start" x="194.5554" y="-164.6054" font-family="Times,serif" font-size="14.00" fill="#000000">update</text>
<polyline fill="none" stroke="#000000" points="186.5554,-156.8054 314.5554,-156.8054 "/>
<polyline fill="none" stroke="#000000" points="186.5554,-132.8054 314.5554,-132.8054 "/>
<text text-anchor="start" x="194.5554" y="-117.6054" font-family="Times,serif" font-size="14.00" fill="#000000">_layout</text>
<text text-anchor="start" x="194.5554" y="-102.6054" font-family="Times,serif" font-size="14.00" fill="#000000">required_parameters</text>
</g>
<!-- ApplicationController&#45;&gt;PostsController -->
<g id="edge6" class="edge">
<title>ApplicationController&#45;&gt;PostsController</title>
<path fill="none" stroke="#000000" d="M366.1843,-442.9467C348.0985,-405.151 323.45,-353.6405 301.5563,-307.887"/>
</g>
<!-- PhotoGalleriesController -->
<g id="node9" class="node">
<title>PhotoGalleriesController</title>
<path fill="none" stroke="#000000" d="M568.8767,-163.5711C568.8767,-163.5711 696.8767,-163.5711 696.8767,-163.5711 702.8767,-163.5711 708.8767,-169.5711 708.8767,-175.5711 708.8767,-175.5711 708.8767,-364.5711 708.8767,-364.5711 708.8767,-370.5711 702.8767,-376.5711 696.8767,-376.5711 696.8767,-376.5711 568.8767,-376.5711 568.8767,-376.5711 562.8767,-376.5711 556.8767,-370.5711 556.8767,-364.5711 556.8767,-364.5711 556.8767,-175.5711 556.8767,-175.5711 556.8767,-169.5711 562.8767,-163.5711 568.8767,-163.5711"/>
<text text-anchor="middle" x="632.8767" y="-361.3711" font-family="Times,serif" font-size="14.00" fill="#000000">PhotoGalleriesController</text>
<polyline fill="none" stroke="#000000" points="556.8767,-353.5711 708.8767,-353.5711 "/>
<text text-anchor="start" x="564.8767" y="-338.3711" font-family="Times,serif" font-size="14.00" fill="#000000">confirm_deletion</text>
<text text-anchor="start" x="564.8767" y="-323.3711" font-family="Times,serif" font-size="14.00" fill="#000000">create</text>
<text text-anchor="start" x="564.8767" y="-308.3711" font-family="Times,serif" font-size="14.00" fill="#000000">delete</text>
<text text-anchor="start" x="564.8767" y="-293.3711" font-family="Times,serif" font-size="14.00" fill="#000000">edit</text>
<text text-anchor="start" x="564.8767" y="-278.3711" font-family="Times,serif" font-size="14.00" fill="#000000">index</text>
<text text-anchor="start" x="564.8767" y="-263.3711" font-family="Times,serif" font-size="14.00" fill="#000000">new</text>
<text text-anchor="start" x="564.8767" y="-248.3711" font-family="Times,serif" font-size="14.00" fill="#000000">show</text>
<text text-anchor="start" x="564.8767" y="-233.3711" font-family="Times,serif" font-size="14.00" fill="#000000">update</text>
<polyline fill="none" stroke="#000000" points="556.8767,-225.5711 708.8767,-225.5711 "/>
<polyline fill="none" stroke="#000000" points="556.8767,-201.5711 708.8767,-201.5711 "/>
<text text-anchor="start" x="564.8767" y="-186.3711" font-family="Times,serif" font-size="14.00" fill="#000000">_layout</text>
<text text-anchor="start" x="564.8767" y="-171.3711" font-family="Times,serif" font-size="14.00" fill="#000000">required_parameters</text>
</g>
<!-- ApplicationController&#45;&gt;PhotoGalleriesController -->
<g id="edge7" class="edge">
<title>ApplicationController&#45;&gt;PhotoGalleriesController</title>
<path fill="none" stroke="#000000" d="M449.9685,-443.1357C481.9328,-412.8916 522.0895,-374.896 556.6281,-342.2162"/>
</g>
<!-- PhotosController -->
<g id="node10" class="node">
<title>PhotosController</title>
<path fill="none" stroke="#000000" d="M61.3134,-235.5304C61.3134,-235.5304 146.3134,-235.5304 146.3134,-235.5304 152.3134,-235.5304 158.3134,-241.5304 158.3134,-247.5304 158.3134,-247.5304 158.3134,-436.5304 158.3134,-436.5304 158.3134,-442.5304 152.3134,-448.5304 146.3134,-448.5304 146.3134,-448.5304 61.3134,-448.5304 61.3134,-448.5304 55.3134,-448.5304 49.3134,-442.5304 49.3134,-436.5304 49.3134,-436.5304 49.3134,-247.5304 49.3134,-247.5304 49.3134,-241.5304 55.3134,-235.5304 61.3134,-235.5304"/>
<text text-anchor="middle" x="103.8134" y="-433.3304" font-family="Times,serif" font-size="14.00" fill="#000000">PhotosController</text>
<polyline fill="none" stroke="#000000" points="49.3134,-425.5304 158.3134,-425.5304 "/>
<text text-anchor="start" x="57.3134" y="-410.3304" font-family="Times,serif" font-size="14.00" fill="#000000">create</text>
<text text-anchor="start" x="57.3134" y="-395.3304" font-family="Times,serif" font-size="14.00" fill="#000000">destroy</text>
<text text-anchor="start" x="57.3134" y="-380.3304" font-family="Times,serif" font-size="14.00" fill="#000000">edit</text>
<text text-anchor="start" x="57.3134" y="-365.3304" font-family="Times,serif" font-size="14.00" fill="#000000">index</text>
<text text-anchor="start" x="57.3134" y="-350.3304" font-family="Times,serif" font-size="14.00" fill="#000000">new</text>
<text text-anchor="start" x="57.3134" y="-335.3304" font-family="Times,serif" font-size="14.00" fill="#000000">show</text>
<text text-anchor="start" x="57.3134" y="-320.3304" font-family="Times,serif" font-size="14.00" fill="#000000">update</text>
<polyline fill="none" stroke="#000000" points="49.3134,-312.5304 158.3134,-312.5304 "/>
<polyline fill="none" stroke="#000000" points="49.3134,-288.5304 158.3134,-288.5304 "/>
<text text-anchor="start" x="57.3134" y="-273.3304" font-family="Times,serif" font-size="14.00" fill="#000000">_layout</text>
<text text-anchor="start" x="57.3134" y="-258.3304" font-family="Times,serif" font-size="14.00" fill="#000000">photo_params</text>
<text text-anchor="start" x="57.3134" y="-243.3304" font-family="Times,serif" font-size="14.00" fill="#000000">set_photo</text>
</g>
<!-- ApplicationController&#45;&gt;PhotosController -->
<g id="edge8" class="edge">
<title>ApplicationController&#45;&gt;PhotosController</title>
<path fill="none" stroke="#000000" d="M324.3426,-460.9639C273.6919,-433.6475 205.4437,-396.8406 158.3515,-371.4433"/>
</g>
<!-- PublicController -->
<g id="node11" class="node">
<title>PublicController</title>
<path fill="none" stroke="#000000" d="M410.2751,-76.5C410.2751,-76.5 493.2751,-76.5 493.2751,-76.5 499.2751,-76.5 505.2751,-82.5 505.2751,-88.5 505.2751,-88.5 505.2751,-262.5 505.2751,-262.5 505.2751,-268.5 499.2751,-274.5 493.2751,-274.5 493.2751,-274.5 410.2751,-274.5 410.2751,-274.5 404.2751,-274.5 398.2751,-268.5 398.2751,-262.5 398.2751,-262.5 398.2751,-88.5 398.2751,-88.5 398.2751,-82.5 404.2751,-76.5 410.2751,-76.5"/>
<text text-anchor="middle" x="451.7751" y="-259.3" font-family="Times,serif" font-size="14.00" fill="#000000">PublicController</text>
<polyline fill="none" stroke="#000000" points="398.2751,-251.5 505.2751,-251.5 "/>
<text text-anchor="start" x="406.2751" y="-236.3" font-family="Times,serif" font-size="14.00" fill="#000000">post_view</text>
<text text-anchor="start" x="406.2751" y="-221.3" font-family="Times,serif" font-size="14.00" fill="#000000">articles</text>
<text text-anchor="start" x="406.2751" y="-206.3" font-family="Times,serif" font-size="14.00" fill="#000000">categories</text>
<text text-anchor="start" x="406.2751" y="-191.3" font-family="Times,serif" font-size="14.00" fill="#000000">galleriesIndex</text>
<text text-anchor="start" x="406.2751" y="-176.3" font-family="Times,serif" font-size="14.00" fill="#000000">galleryView</text>
<text text-anchor="start" x="406.2751" y="-161.3" font-family="Times,serif" font-size="14.00" fill="#000000">index</text>
<text text-anchor="start" x="406.2751" y="-146.3" font-family="Times,serif" font-size="14.00" fill="#000000">news</text>
<text text-anchor="start" x="406.2751" y="-131.3" font-family="Times,serif" font-size="14.00" fill="#000000">show</text>
<polyline fill="none" stroke="#000000" points="398.2751,-123.5 505.2751,-123.5 "/>
<polyline fill="none" stroke="#000000" points="398.2751,-99.5 505.2751,-99.5 "/>
<text text-anchor="start" x="406.2751" y="-84.3" font-family="Times,serif" font-size="14.00" fill="#000000">_layout</text>
</g>
<!-- ApplicationController&#45;&gt;PublicController -->
<g id="edge9" class="edge">
<title>ApplicationController&#45;&gt;PublicController</title>
<path fill="none" stroke="#000000" d="M402.4376,-442.9978C410.9135,-397.0431 423.2479,-330.1686 433.4633,-274.7828"/>
</g>
<!-- PostAttachmentsController -->
<g id="node12" class="node">
<title>PostAttachmentsController</title>
<path fill="none" stroke="#000000" d="M643.6569,-392.6389C643.6569,-392.6389 783.6569,-392.6389 783.6569,-392.6389 789.6569,-392.6389 795.6569,-398.6389 795.6569,-404.6389 795.6569,-404.6389 795.6569,-503.6389 795.6569,-503.6389 795.6569,-509.6389 789.6569,-515.6389 783.6569,-515.6389 783.6569,-515.6389 643.6569,-515.6389 643.6569,-515.6389 637.6569,-515.6389 631.6569,-509.6389 631.6569,-503.6389 631.6569,-503.6389 631.6569,-404.6389 631.6569,-404.6389 631.6569,-398.6389 637.6569,-392.6389 643.6569,-392.6389"/>
<text text-anchor="middle" x="713.6569" y="-500.4389" font-family="Times,serif" font-size="14.00" fill="#000000">PostAttachmentsController</text>
<polyline fill="none" stroke="#000000" points="631.6569,-492.6389 795.6569,-492.6389 "/>
<text text-anchor="start" x="639.6569" y="-477.4389" font-family="Times,serif" font-size="14.00" fill="#000000">delete</text>
<text text-anchor="start" x="639.6569" y="-462.4389" font-family="Times,serif" font-size="14.00" fill="#000000">index</text>
<text text-anchor="start" x="639.6569" y="-447.4389" font-family="Times,serif" font-size="14.00" fill="#000000">show</text>
<polyline fill="none" stroke="#000000" points="631.6569,-439.6389 795.6569,-439.6389 "/>
<polyline fill="none" stroke="#000000" points="631.6569,-415.6389 795.6569,-415.6389 "/>
<text text-anchor="start" x="639.6569" y="-400.4389" font-family="Times,serif" font-size="14.00" fill="#000000">_layout</text>
</g>
<!-- ApplicationController&#45;&gt;PostAttachmentsController -->
<g id="edge10" class="edge">
<title>ApplicationController&#45;&gt;PostAttachmentsController</title>
<path fill="none" stroke="#000000" d="M460.4975,-488.4188C510.4178,-481.6592 578.4167,-472.4516 631.3708,-465.2811"/>
</g>
<!-- ActiveStorage::RepresentationsController -->
<g id="node13" class="node">
<title>ActiveStorage::RepresentationsController</title>
<path fill="none" stroke="#000000" d="M886,-342.5C886,-342.5 1105,-342.5 1105,-342.5 1111,-342.5 1117,-348.5 1117,-354.5 1117,-354.5 1117,-423.5 1117,-423.5 1117,-429.5 1111,-435.5 1105,-435.5 1105,-435.5 886,-435.5 886,-435.5 880,-435.5 874,-429.5 874,-423.5 874,-423.5 874,-354.5 874,-354.5 874,-348.5 880,-342.5 886,-342.5"/>
<text text-anchor="middle" x="995.5" y="-420.3" font-family="Times,serif" font-size="14.00" fill="#000000">ActiveStorage::RepresentationsController</text>
<polyline fill="none" stroke="#000000" points="874,-412.5 1117,-412.5 "/>
<text text-anchor="start" x="882" y="-397.3" font-family="Times,serif" font-size="14.00" fill="#000000">show</text>
<polyline fill="none" stroke="#000000" points="874,-389.5 1117,-389.5 "/>
<polyline fill="none" stroke="#000000" points="874,-365.5 1117,-365.5 "/>
<text text-anchor="start" x="882" y="-350.3" font-family="Times,serif" font-size="14.00" fill="#000000">_layout</text>
</g>
<!-- ActiveStorage::BlobsController -->
<g id="node14" class="node">
<title>ActiveStorage::BlobsController</title>
<path fill="none" stroke="#000000" d="M12,-912.5C12,-912.5 176,-912.5 176,-912.5 182,-912.5 188,-918.5 188,-924.5 188,-924.5 188,-993.5 188,-993.5 188,-999.5 182,-1005.5 176,-1005.5 176,-1005.5 12,-1005.5 12,-1005.5 6,-1005.5 0,-999.5 0,-993.5 0,-993.5 0,-924.5 0,-924.5 0,-918.5 6,-912.5 12,-912.5"/>
<text text-anchor="middle" x="94" y="-990.3" font-family="Times,serif" font-size="14.00" fill="#000000">ActiveStorage::BlobsController</text>
<polyline fill="none" stroke="#000000" points="0,-982.5 188,-982.5 "/>
<text text-anchor="start" x="8" y="-967.3" font-family="Times,serif" font-size="14.00" fill="#000000">show</text>
<polyline fill="none" stroke="#000000" points="0,-959.5 188,-959.5 "/>
<polyline fill="none" stroke="#000000" points="0,-935.5 188,-935.5 "/>
<text text-anchor="start" x="8" y="-920.3" font-family="Times,serif" font-size="14.00" fill="#000000">_layout</text>
</g>
<!-- ActiveStorage::DiskController -->
<g id="node15" class="node">
<title>ActiveStorage::DiskController</title>
<path fill="none" stroke="#000000" d="M734,-798.5C734,-798.5 892,-798.5 892,-798.5 898,-798.5 904,-804.5 904,-810.5 904,-810.5 904,-954.5 904,-954.5 904,-960.5 898,-966.5 892,-966.5 892,-966.5 734,-966.5 734,-966.5 728,-966.5 722,-960.5 722,-954.5 722,-954.5 722,-810.5 722,-810.5 722,-804.5 728,-798.5 734,-798.5"/>
<text text-anchor="middle" x="813" y="-951.3" font-family="Times,serif" font-size="14.00" fill="#000000">ActiveStorage::DiskController</text>
<polyline fill="none" stroke="#000000" points="722,-943.5 904,-943.5 "/>
<text text-anchor="start" x="730" y="-928.3" font-family="Times,serif" font-size="14.00" fill="#000000">show</text>
<text text-anchor="start" x="730" y="-913.3" font-family="Times,serif" font-size="14.00" fill="#000000">update</text>
<polyline fill="none" stroke="#000000" points="722,-905.5 904,-905.5 "/>
<polyline fill="none" stroke="#000000" points="722,-881.5 904,-881.5 "/>
<text text-anchor="start" x="730" y="-866.3" font-family="Times,serif" font-size="14.00" fill="#000000">_layout</text>
<text text-anchor="start" x="730" y="-851.3" font-family="Times,serif" font-size="14.00" fill="#000000">acceptable_content?</text>
<text text-anchor="start" x="730" y="-836.3" font-family="Times,serif" font-size="14.00" fill="#000000">decode_verified_key</text>
<text text-anchor="start" x="730" y="-821.3" font-family="Times,serif" font-size="14.00" fill="#000000">decode_verified_token</text>
<text text-anchor="start" x="730" y="-806.3" font-family="Times,serif" font-size="14.00" fill="#000000">disk_service</text>
</g>
<!-- ActiveStorage::BaseController -->
<g id="node16" class="node">
<title>ActiveStorage::BaseController</title>
<path fill="none" stroke="#000000" d="M582,-.5C582,-.5 741,-.5 741,-.5 747,-.5 753,-6.5 753,-12.5 753,-12.5 753,-82.5 753,-82.5 753,-88.5 747,-94.5 741,-94.5 741,-94.5 582,-94.5 582,-94.5 576,-94.5 570,-88.5 570,-82.5 570,-82.5 570,-12.5 570,-12.5 570,-6.5 576,-.5 582,-.5"/>
<text text-anchor="middle" x="661.5" y="-79.3" font-family="Times,serif" font-size="14.00" fill="#000000">ActiveStorage::BaseController</text>
<polyline fill="none" stroke="#000000" points="570,-71.5 753,-71.5 "/>
<polyline fill="none" stroke="#000000" points="570,-47.5 753,-47.5 "/>
<polyline fill="none" stroke="#000000" points="570,-23.5 753,-23.5 "/>
<text text-anchor="start" x="578" y="-8.3" font-family="Times,serif" font-size="14.00" fill="#000000">_layout</text>
</g>
<!-- ActiveStorage::DirectUploadsController -->
<g id="node17" class="node">
<title>ActiveStorage::DirectUploadsController</title>
<path fill="none" stroke="#000000" d="M772,-152.5C772,-152.5 984,-152.5 984,-152.5 990,-152.5 996,-158.5 996,-164.5 996,-164.5 996,-263.5 996,-263.5 996,-269.5 990,-275.5 984,-275.5 984,-275.5 772,-275.5 772,-275.5 766,-275.5 760,-269.5 760,-263.5 760,-263.5 760,-164.5 760,-164.5 760,-158.5 766,-152.5 772,-152.5"/>
<text text-anchor="middle" x="878" y="-260.3" font-family="Times,serif" font-size="14.00" fill="#000000">ActiveStorage::DirectUploadsController</text>
<polyline fill="none" stroke="#000000" points="760,-252.5 996,-252.5 "/>
<text text-anchor="start" x="768" y="-237.3" font-family="Times,serif" font-size="14.00" fill="#000000">create</text>
<polyline fill="none" stroke="#000000" points="760,-229.5 996,-229.5 "/>
<polyline fill="none" stroke="#000000" points="760,-205.5 996,-205.5 "/>
<text text-anchor="start" x="768" y="-190.3" font-family="Times,serif" font-size="14.00" fill="#000000">_layout</text>
<text text-anchor="start" x="768" y="-175.3" font-family="Times,serif" font-size="14.00" fill="#000000">blob_args</text>
<text text-anchor="start" x="768" y="-160.3" font-family="Times,serif" font-size="14.00" fill="#000000">direct_upload_json</text>
</g>
</g>
</svg>
