<?xml version="1.0" encoding="UTF-8" standalone="no"?>
<!DOCTYPE svg PUBLIC "-//W3C//DTD SVG 1.1//EN"
 "http://www.w3.org/Graphics/SVG/1.1/DTD/svg11.dtd">
<!-- Generated by graphviz version 2.40.1 (20161225.0304)
 -->
<!-- Title: models_diagram Pages: 1 -->
<svg width="2987pt" height="230pt"
 viewBox="0.00 0.00 2987.00 230.00" xmlns="http://www.w3.org/2000/svg" xmlns:xlink="http://www.w3.org/1999/xlink">
<g id="graph0" class="graph" transform="scale(1 1) rotate(0) translate(4 226)">
<title>models_diagram</title>
<polygon fill="transparent" stroke="transparent" points="-4,4 -4,-226 2983,-226 2983,4 -4,4"/>
<!-- _diagram_info -->
<g id="node1" class="node">
<title>_diagram_info</title>
<text text-anchor="start" x="8" y="-207.6" font-family="Times,serif" font-size="13.00" fill="#000000">Models diagram</text>
<text text-anchor="start" x="8" y="-193.6" font-family="Times,serif" font-size="13.00" fill="#000000">Date: Apr 15 2019 &#45; 20:24</text>
<text text-anchor="start" x="8" y="-179.6" font-family="Times,serif" font-size="13.00" fill="#000000">Migration version: 20180912095635</text>
<text text-anchor="start" x="8" y="-165.6" font-family="Times,serif" font-size="13.00" fill="#000000">Generated by RailRoady 1.5.3</text>
<text text-anchor="start" x="8" y="-151.6" font-family="Times,serif" font-size="13.00" fill="#000000">http://railroady.prestonlee.com</text>
</g>
<!-- ImageUploader -->
<g id="node2" class="node">
<title>ImageUploader</title>
<polygon fill="none" stroke="#000000" points="316.5,-108 215.5,-108 215.5,-72 316.5,-72 316.5,-108"/>
<text text-anchor="middle" x="266" y="-86.3" font-family="Times,serif" font-size="14.00" fill="#000000">ImageUploader</text>
</g>
<!-- Photo -->
<g id="node3" class="node">
<title>Photo</title>
<ellipse fill="none" stroke="#000000" cx="366" cy="-90" rx="31.3957" ry="18"/>
<text text-anchor="middle" x="366" y="-86.3" font-family="Times,serif" font-size="14.00" fill="#000000">Photo</text>
</g>
<!-- ApplicationRecord -->
<g id="node4" class="node">
<title>ApplicationRecord</title>
<ellipse fill="none" stroke="#000000" cx="442" cy="-183" rx="77.1866" ry="18"/>
<text text-anchor="middle" x="442" y="-179.3" font-family="Times,serif" font-size="14.00" fill="#000000">ApplicationRecord</text>
</g>
<!-- ApplicationRecord&#45;&gt;Photo -->
<g id="edge2" class="edge">
<title>ApplicationRecord&#45;&gt;Photo</title>
<path fill="none" stroke="#000000" d="M427.3464,-165.0687C413.4572,-148.0726 392.7741,-122.763 379.336,-106.3191"/>
</g>
<!-- User -->
<g id="node6" class="node">
<title>User</title>
<ellipse fill="none" stroke="#000000" cx="442" cy="-90" rx="27.0966" ry="18"/>
<text text-anchor="middle" x="442" y="-86.3" font-family="Times,serif" font-size="14.00" fill="#000000">User</text>
</g>
<!-- ApplicationRecord&#45;&gt;User -->
<g id="edge3" class="edge">
<title>ApplicationRecord&#45;&gt;User</title>
<path fill="none" stroke="#000000" d="M442,-164.6262C442,-148.2161 442,-124.3202 442,-108.0192"/>
</g>
<!-- PostCategory -->
<g id="node9" class="node">
<title>PostCategory</title>
<ellipse fill="none" stroke="#000000" cx="545" cy="-90" rx="57.6901" ry="18"/>
<text text-anchor="middle" x="545" y="-86.3" font-family="Times,serif" font-size="14.00" fill="#000000">PostCategory</text>
</g>
<!-- ApplicationRecord&#45;&gt;PostCategory -->
<g id="edge6" class="edge">
<title>ApplicationRecord&#45;&gt;PostCategory</title>
<path fill="none" stroke="#000000" d="M461.3735,-165.5074C479.9048,-148.7753 507.6763,-123.7 526.0614,-107.0999"/>
</g>
<!-- Post -->
<g id="node5" class="node">
<title>Post</title>
<ellipse fill="none" stroke="#000000" cx="545" cy="-18" rx="27" ry="18"/>
<text text-anchor="middle" x="545" y="-14.3" font-family="Times,serif" font-size="14.00" fill="#000000">Post</text>
</g>
<!-- PhotoGallery -->
<g id="node7" class="node">
<title>PhotoGallery</title>
<ellipse fill="none" stroke="#000000" cx="665" cy="-183" rx="57.6901" ry="18"/>
<text text-anchor="middle" x="665" y="-179.3" font-family="Times,serif" font-size="14.00" fill="#000000">PhotoGallery</text>
</g>
<!-- MyPhoto -->
<g id="node8" class="node">
<title>MyPhoto</title>
<ellipse fill="none" stroke="#000000" cx="665" cy="-90" rx="44.393" ry="18"/>
<text text-anchor="middle" x="665" y="-86.3" font-family="Times,serif" font-size="14.00" fill="#000000">MyPhoto</text>
</g>
<!-- PhotoGallery&#45;&gt;MyPhoto -->
<g id="edge4" class="edge">
<title>PhotoGallery&#45;&gt;MyPhoto</title>
<path fill="none" stroke="#e6826d" d="M665,-156.4432C665,-144.4479 665,-130.268 665,-118.0949"/>
<ellipse fill="none" stroke="#e6826d" cx="665" cy="-160.6262" rx="4" ry="4"/>
<polygon fill="#e6826d" stroke="#e6826d" points="665.0001,-118.0192 669.5,-108.0191 665,-113.0192 665,-108.0192 665,-108.0192 665,-108.0192 665,-113.0192 660.5,-108.0192 665.0001,-118.0192 665.0001,-118.0192"/>
</g>
<!-- PostCategory&#45;&gt;Post -->
<g id="edge5" class="edge">
<title>PostCategory&#45;&gt;Post</title>
<path fill="none" stroke="#b0fd01" d="M545,-63.8144C545,-58.2775 545,-52.4053 545,-46.7785"/>
<ellipse fill="none" stroke="#b0fd01" cx="545" cy="-67.8314" rx="4" ry="4"/>
<polygon fill="#b0fd01" stroke="#b0fd01" points="545.0001,-46.4133 549.5,-36.4132 545,-41.4133 545,-36.4133 545,-36.4133 545,-36.4133 545,-41.4133 540.5,-36.4133 545.0001,-46.4133 545.0001,-46.4133"/>
</g>
<!-- ActiveStorage::Blob::Identifiable -->
<g id="node10" class="node">
<title>ActiveStorage::Blob::Identifiable</title>
<polygon fill="none" stroke="#000000" stroke-dasharray="1,5" points="937.5,-201 740.5,-201 740.5,-165 937.5,-165 937.5,-201"/>
<text text-anchor="middle" x="839" y="-179.3" font-family="Times,serif" font-size="14.00" fill="#000000">ActiveStorage::Blob::Identifiable</text>
</g>
<!-- ActiveStorage::Blob::Analyzable -->
<g id="node11" class="node">
<title>ActiveStorage::Blob::Analyzable</title>
<polygon fill="none" stroke="#000000" stroke-dasharray="1,5" points="1152.5,-201 955.5,-201 955.5,-165 1152.5,-165 1152.5,-201"/>
<text text-anchor="middle" x="1054" y="-179.3" font-family="Times,serif" font-size="14.00" fill="#000000">ActiveStorage::Blob::Analyzable</text>
</g>
<!-- ActiveStorage::Blob::Representable -->
<g id="node12" class="node">
<title>ActiveStorage::Blob::Representable</title>
<polygon fill="none" stroke="#000000" stroke-dasharray="1,5" points="1383,-201 1171,-201 1171,-165 1383,-165 1383,-201"/>
<text text-anchor="middle" x="1277" y="-179.3" font-family="Times,serif" font-size="14.00" fill="#000000">ActiveStorage::Blob::Representable</text>
</g>
<!-- ActiveStorage::Variant -->
<g id="node13" class="node">
<title>ActiveStorage::Variant</title>
<polygon fill="none" stroke="#000000" points="1543,-201 1401,-201 1401,-165 1543,-165 1543,-201"/>
<text text-anchor="middle" x="1472" y="-179.3" font-family="Times,serif" font-size="14.00" fill="#000000">ActiveStorage::Variant</text>
</g>
<!-- ActiveStorage::Filename -->
<g id="node14" class="node">
<title>ActiveStorage::Filename</title>
<polygon fill="none" stroke="#000000" points="1713,-201 1561,-201 1561,-165 1713,-165 1713,-201"/>
<text text-anchor="middle" x="1637" y="-179.3" font-family="Times,serif" font-size="14.00" fill="#000000">ActiveStorage::Filename</text>
</g>
<!-- ActiveStorage::Filename::Parameters -->
<g id="node15" class="node">
<title>ActiveStorage::Filename::Parameters</title>
<polygon fill="none" stroke="#000000" points="1952.5,-201 1731.5,-201 1731.5,-165 1952.5,-165 1952.5,-201"/>
<text text-anchor="middle" x="1842" y="-179.3" font-family="Times,serif" font-size="14.00" fill="#000000">ActiveStorage::Filename::Parameters</text>
</g>
<!-- ActiveStorage::Preview -->
<g id="node16" class="node">
<title>ActiveStorage::Preview</title>
<polygon fill="none" stroke="#000000" points="2117,-201 1971,-201 1971,-165 2117,-165 2117,-201"/>
<text text-anchor="middle" x="2044" y="-179.3" font-family="Times,serif" font-size="14.00" fill="#000000">ActiveStorage::Preview</text>
</g>
<!-- ActiveStorage::Attachment -->
<g id="node17" class="node">
<title>ActiveStorage::Attachment</title>
<ellipse fill="none" stroke="#000000" cx="2242" cy="-183" rx="107.4815" ry="18"/>
<text text-anchor="middle" x="2242" y="-179.3" font-family="Times,serif" font-size="14.00" fill="#000000">ActiveStorage::Attachment</text>
</g>
<!-- ActiveStorage::Blob -->
<g id="node18" class="node">
<title>ActiveStorage::Blob</title>
<ellipse fill="none" stroke="#000000" cx="2450" cy="-183" rx="83.3857" ry="18"/>
<text text-anchor="middle" x="2450" y="-179.3" font-family="Times,serif" font-size="14.00" fill="#000000">ActiveStorage::Blob</text>
</g>
<!-- ActiveStorage::Current -->
<g id="node19" class="node">
<title>ActiveStorage::Current</title>
<polygon fill="none" stroke="#000000" points="2751.5,-108 2608.5,-108 2608.5,-72 2751.5,-72 2751.5,-108"/>
<text text-anchor="middle" x="2680" y="-86.3" font-family="Times,serif" font-size="14.00" fill="#000000">ActiveStorage::Current</text>
</g>
<!-- ActiveStorage::Variation -->
<g id="node20" class="node">
<title>ActiveStorage::Variation</title>
<polygon fill="none" stroke="#000000" points="2979,-201 2827,-201 2827,-165 2979,-165 2979,-201"/>
<text text-anchor="middle" x="2903" y="-179.3" font-family="Times,serif" font-size="14.00" fill="#000000">ActiveStorage::Variation</text>
</g>
<!-- Shrine -->
<g id="node21" class="node">
<title>Shrine</title>
<ellipse fill="none" stroke="#000000" cx="266" cy="-183" rx="33.5952" ry="18"/>
<text text-anchor="middle" x="266" y="-179.3" font-family="Times,serif" font-size="14.00" fill="#000000">Shrine</text>
</g>
<!-- Shrine&#45;&gt;ImageUploader -->
<g id="edge1" class="edge">
<title>Shrine&#45;&gt;ImageUploader</title>
<path fill="none" stroke="#000000" d="M266,-164.6262C266,-148.2161 266,-124.3202 266,-108.0192"/>
</g>
<!-- ActiveSupport::CurrentAttributes -->
<g id="node22" class="node">
<title>ActiveSupport::CurrentAttributes</title>
<ellipse fill="none" stroke="#000000" cx="2680" cy="-183" rx="128.8774" ry="18"/>
<text text-anchor="middle" x="2680" y="-179.3" font-family="Times,serif" font-size="14.00" fill="#000000">ActiveSupport::CurrentAttributes</text>
</g>
<!-- ActiveSupport::CurrentAttributes&#45;&gt;ActiveStorage::Current -->
<g id="edge7" class="edge">
<title>ActiveSupport::CurrentAttributes&#45;&gt;ActiveStorage::Current</title>
<path fill="none" stroke="#000000" d="M2680,-164.6262C2680,-148.2161 2680,-124.3202 2680,-108.0192"/>
</g>
</g>
</svg>
