<?xml version="1.0" encoding="UTF-8" standalone="no"?>
<!DOCTYPE svg PUBLIC "-//W3C//DTD SVG 1.1//EN"
 "http://www.w3.org/Graphics/SVG/1.1/DTD/svg11.dtd">
<!-- Generated by graphviz version 2.40.1 (20161225.0304)
 -->
<!-- Title: models_diagram Pages: 1 -->
<svg width="3238pt" height="611pt"
 viewBox="0.00 0.00 3238.00 611.00" xmlns="http://www.w3.org/2000/svg" xmlns:xlink="http://www.w3.org/1999/xlink">
<g id="graph0" class="graph" transform="scale(1 1) rotate(0) translate(4 607)">
<title>models_diagram</title>
<polygon fill="transparent" stroke="transparent" points="-4,4 -4,-607 3234,-607 3234,4 -4,4"/>
<!-- _diagram_info -->
<g id="node1" class="node">
<title>_diagram_info</title>
<text text-anchor="start" x="8" y="-544.1" font-family="Times,serif" font-size="13.00" fill="#000000">Models diagram</text>
<text text-anchor="start" x="8" y="-530.1" font-family="Times,serif" font-size="13.00" fill="#000000">Date: Apr 15 2019 &#45; 20:24</text>
<text text-anchor="start" x="8" y="-516.1" font-family="Times,serif" font-size="13.00" fill="#000000">Migration version: 20180912095635</text>
<text text-anchor="start" x="8" y="-502.1" font-family="Times,serif" font-size="13.00" fill="#000000">Generated by RailRoady 1.5.3</text>
<text text-anchor="start" x="8" y="-488.1" font-family="Times,serif" font-size="13.00" fill="#000000">http://railroady.prestonlee.com</text>
</g>
<!-- ImageUploader -->
<g id="node2" class="node">
<title>ImageUploader</title>
<polygon fill="none" stroke="#000000" points="215.5,-271 215.5,-317 316.5,-317 316.5,-271 215.5,-271"/>
<text text-anchor="middle" x="266" y="-301.8" font-family="Times,serif" font-size="14.00" fill="#000000">ImageUploader</text>
<polyline fill="none" stroke="#000000" points="215.5,-294 316.5,-294 "/>
<text text-anchor="middle" x="266" y="-278.8" font-family="Times,serif" font-size="14.00" fill="#000000"> </text>
</g>
<!-- Photo -->
<g id="node3" class="node">
<title>Photo</title>
<path fill="none" stroke="#000000" d="M346.5,-248.5C346.5,-248.5 453.5,-248.5 453.5,-248.5 459.5,-248.5 465.5,-254.5 465.5,-260.5 465.5,-260.5 465.5,-327.5 465.5,-327.5 465.5,-333.5 459.5,-339.5 453.5,-339.5 453.5,-339.5 346.5,-339.5 346.5,-339.5 340.5,-339.5 334.5,-333.5 334.5,-327.5 334.5,-327.5 334.5,-260.5 334.5,-260.5 334.5,-254.5 340.5,-248.5 346.5,-248.5"/>
<text text-anchor="middle" x="400" y="-324.3" font-family="Times,serif" font-size="14.00" fill="#000000">Photo</text>
<polyline fill="none" stroke="#000000" points="334.5,-316.5 465.5,-316.5 "/>
<text text-anchor="start" x="342.5" y="-301.3" font-family="Times,serif" font-size="14.00" fill="#000000">id :integer</text>
<text text-anchor="start" x="342.5" y="-286.3" font-family="Times,serif" font-size="14.00" fill="#000000">image_data :text</text>
<text text-anchor="start" x="342.5" y="-271.3" font-family="Times,serif" font-size="14.00" fill="#000000">created_at :datetime</text>
<text text-anchor="start" x="342.5" y="-256.3" font-family="Times,serif" font-size="14.00" fill="#000000">updated_at :datetime</text>
</g>
<!-- ApplicationRecord -->
<g id="node4" class="node">
<title>ApplicationRecord</title>
<ellipse fill="none" stroke="#000000" cx="572" cy="-519.5" rx="77.1866" ry="18"/>
<text text-anchor="middle" x="572" y="-515.8" font-family="Times,serif" font-size="14.00" fill="#000000">ApplicationRecord</text>
</g>
<!-- ApplicationRecord&#45;&gt;Photo -->
<g id="edge2" class="edge">
<title>ApplicationRecord&#45;&gt;Photo</title>
<path fill="none" stroke="#000000" d="M556.6125,-501.6299C536.9259,-478.5678 502.0232,-437.0036 474,-400 459.2986,-380.5873 443.7663,-358.5891 430.7482,-339.6841"/>
</g>
<!-- User -->
<g id="node6" class="node">
<title>User</title>
<path fill="none" stroke="#000000" d="M495.5,-218.5C495.5,-218.5 648.5,-218.5 648.5,-218.5 654.5,-218.5 660.5,-224.5 660.5,-230.5 660.5,-230.5 660.5,-357.5 660.5,-357.5 660.5,-363.5 654.5,-369.5 648.5,-369.5 648.5,-369.5 495.5,-369.5 495.5,-369.5 489.5,-369.5 483.5,-363.5 483.5,-357.5 483.5,-357.5 483.5,-230.5 483.5,-230.5 483.5,-224.5 489.5,-218.5 495.5,-218.5"/>
<text text-anchor="middle" x="572" y="-354.3" font-family="Times,serif" font-size="14.00" fill="#000000">User</text>
<polyline fill="none" stroke="#000000" points="483.5,-346.5 660.5,-346.5 "/>
<text text-anchor="start" x="491.5" y="-331.3" font-family="Times,serif" font-size="14.00" fill="#000000">id :integer</text>
<text text-anchor="start" x="491.5" y="-316.3" font-family="Times,serif" font-size="14.00" fill="#000000">User_FirstName :varchar(20)</text>
<text text-anchor="start" x="491.5" y="-301.3" font-family="Times,serif" font-size="14.00" fill="#000000">User_Surname :varchar(40)</text>
<text text-anchor="start" x="491.5" y="-286.3" font-family="Times,serif" font-size="14.00" fill="#000000">Username :varchar(25)</text>
<text text-anchor="start" x="491.5" y="-271.3" font-family="Times,serif" font-size="14.00" fill="#000000">Email :varchar(60)</text>
<text text-anchor="start" x="491.5" y="-256.3" font-family="Times,serif" font-size="14.00" fill="#000000">password_digest :varchar</text>
<text text-anchor="start" x="491.5" y="-241.3" font-family="Times,serif" font-size="14.00" fill="#000000">created_at :datetime</text>
<text text-anchor="start" x="491.5" y="-226.3" font-family="Times,serif" font-size="14.00" fill="#000000">updated_at :datetime</text>
</g>
<!-- ApplicationRecord&#45;&gt;User -->
<g id="edge3" class="edge">
<title>ApplicationRecord&#45;&gt;User</title>
<path fill="none" stroke="#000000" d="M572,-501.4276C572,-473.0525 572,-416.444 572,-369.5237"/>
</g>
<!-- PostCategory -->
<g id="node9" class="node">
<title>PostCategory</title>
<path fill="none" stroke="#000000" d="M690.5,-241C690.5,-241 853.5,-241 853.5,-241 859.5,-241 865.5,-247 865.5,-253 865.5,-253 865.5,-335 865.5,-335 865.5,-341 859.5,-347 853.5,-347 853.5,-347 690.5,-347 690.5,-347 684.5,-347 678.5,-341 678.5,-335 678.5,-335 678.5,-253 678.5,-253 678.5,-247 684.5,-241 690.5,-241"/>
<text text-anchor="middle" x="772" y="-331.8" font-family="Times,serif" font-size="14.00" fill="#000000">PostCategory</text>
<polyline fill="none" stroke="#000000" points="678.5,-324 865.5,-324 "/>
<text text-anchor="start" x="686.5" y="-308.8" font-family="Times,serif" font-size="14.00" fill="#000000">id :integer</text>
<text text-anchor="start" x="686.5" y="-293.8" font-family="Times,serif" font-size="14.00" fill="#000000">postcategoryname :varchar</text>
<text text-anchor="start" x="686.5" y="-278.8" font-family="Times,serif" font-size="14.00" fill="#000000">PostCategory_Description :text</text>
<text text-anchor="start" x="686.5" y="-263.8" font-family="Times,serif" font-size="14.00" fill="#000000">created_at :datetime</text>
<text text-anchor="start" x="686.5" y="-248.8" font-family="Times,serif" font-size="14.00" fill="#000000">updated_at :datetime</text>
</g>
<!-- ApplicationRecord&#45;&gt;PostCategory -->
<g id="edge6" class="edge">
<title>ApplicationRecord&#45;&gt;PostCategory</title>
<path fill="none" stroke="#000000" d="M587.6937,-501.8054C616.885,-468.8922 680.5803,-397.0757 724.864,-347.1459"/>
</g>
<!-- Post -->
<g id="node5" class="node">
<title>Post</title>
<path fill="none" stroke="#000000" d="M706.5,-.5C706.5,-.5 837.5,-.5 837.5,-.5 843.5,-.5 849.5,-6.5 849.5,-12.5 849.5,-12.5 849.5,-139.5 849.5,-139.5 849.5,-145.5 843.5,-151.5 837.5,-151.5 837.5,-151.5 706.5,-151.5 706.5,-151.5 700.5,-151.5 694.5,-145.5 694.5,-139.5 694.5,-139.5 694.5,-12.5 694.5,-12.5 694.5,-6.5 700.5,-.5 706.5,-.5"/>
<text text-anchor="middle" x="772" y="-136.3" font-family="Times,serif" font-size="14.00" fill="#000000">Post</text>
<polyline fill="none" stroke="#000000" points="694.5,-128.5 849.5,-128.5 "/>
<text text-anchor="start" x="702.5" y="-113.3" font-family="Times,serif" font-size="14.00" fill="#000000">id :integer</text>
<text text-anchor="start" x="702.5" y="-98.3" font-family="Times,serif" font-size="14.00" fill="#000000">post_category_id :integer</text>
<text text-anchor="start" x="702.5" y="-83.3" font-family="Times,serif" font-size="14.00" fill="#000000">Post_Title :varchar</text>
<text text-anchor="start" x="702.5" y="-68.3" font-family="Times,serif" font-size="14.00" fill="#000000">Post_Author :varchar</text>
<text text-anchor="start" x="702.5" y="-53.3" font-family="Times,serif" font-size="14.00" fill="#000000">Post_Body :text</text>
<text text-anchor="start" x="702.5" y="-38.3" font-family="Times,serif" font-size="14.00" fill="#000000">Post_Visibility :boolean</text>
<text text-anchor="start" x="702.5" y="-23.3" font-family="Times,serif" font-size="14.00" fill="#000000">created_at :datetime</text>
<text text-anchor="start" x="702.5" y="-8.3" font-family="Times,serif" font-size="14.00" fill="#000000">updated_at :datetime</text>
</g>
<!-- PhotoGallery -->
<g id="node7" class="node">
<title>PhotoGallery</title>
<path fill="none" stroke="#000000" d="M910.5,-436.5C910.5,-436.5 1041.5,-436.5 1041.5,-436.5 1047.5,-436.5 1053.5,-442.5 1053.5,-448.5 1053.5,-448.5 1053.5,-590.5 1053.5,-590.5 1053.5,-596.5 1047.5,-602.5 1041.5,-602.5 1041.5,-602.5 910.5,-602.5 910.5,-602.5 904.5,-602.5 898.5,-596.5 898.5,-590.5 898.5,-590.5 898.5,-448.5 898.5,-448.5 898.5,-442.5 904.5,-436.5 910.5,-436.5"/>
<text text-anchor="middle" x="976" y="-587.3" font-family="Times,serif" font-size="14.00" fill="#000000">PhotoGallery</text>
<polyline fill="none" stroke="#000000" points="898.5,-579.5 1053.5,-579.5 "/>
<text text-anchor="start" x="906.5" y="-564.3" font-family="Times,serif" font-size="14.00" fill="#000000">id :integer</text>
<text text-anchor="start" x="906.5" y="-549.3" font-family="Times,serif" font-size="14.00" fill="#000000">gallerytitle :varchar</text>
<text text-anchor="start" x="906.5" y="-534.3" font-family="Times,serif" font-size="14.00" fill="#000000">galleryDescription :text</text>
<text text-anchor="start" x="906.5" y="-519.3" font-family="Times,serif" font-size="14.00" fill="#000000">galleryPosition :integer</text>
<text text-anchor="start" x="906.5" y="-504.3" font-family="Times,serif" font-size="14.00" fill="#000000">galleryVisibility :boolean</text>
<text text-anchor="start" x="906.5" y="-489.3" font-family="Times,serif" font-size="14.00" fill="#000000">created_at :datetime</text>
<text text-anchor="start" x="906.5" y="-474.3" font-family="Times,serif" font-size="14.00" fill="#000000">updated_at :datetime</text>
<text text-anchor="start" x="906.5" y="-459.3" font-family="Times,serif" font-size="14.00" fill="#000000">galleryAuthor :varchar</text>
<text text-anchor="start" x="906.5" y="-444.3" font-family="Times,serif" font-size="14.00" fill="#000000">country :varchar</text>
</g>
<!-- MyPhoto -->
<g id="node8" class="node">
<title>MyPhoto</title>
<path fill="none" stroke="#000000" d="M895,-188.5C895,-188.5 1057,-188.5 1057,-188.5 1063,-188.5 1069,-194.5 1069,-200.5 1069,-200.5 1069,-387.5 1069,-387.5 1069,-393.5 1063,-399.5 1057,-399.5 1057,-399.5 895,-399.5 895,-399.5 889,-399.5 883,-393.5 883,-387.5 883,-387.5 883,-200.5 883,-200.5 883,-194.5 889,-188.5 895,-188.5"/>
<text text-anchor="middle" x="976" y="-384.3" font-family="Times,serif" font-size="14.00" fill="#000000">MyPhoto</text>
<polyline fill="none" stroke="#000000" points="883,-376.5 1069,-376.5 "/>
<text text-anchor="start" x="891" y="-361.3" font-family="Times,serif" font-size="14.00" fill="#000000">id :integer</text>
<text text-anchor="start" x="891" y="-346.3" font-family="Times,serif" font-size="14.00" fill="#000000">photo_gallery_id :integer</text>
<text text-anchor="start" x="891" y="-331.3" font-family="Times,serif" font-size="14.00" fill="#000000">myPhotoVisibility :boolean</text>
<text text-anchor="start" x="891" y="-316.3" font-family="Times,serif" font-size="14.00" fill="#000000">myPhotoPosition :integer</text>
<text text-anchor="start" x="891" y="-301.3" font-family="Times,serif" font-size="14.00" fill="#000000">myPhotoTitle :varchar</text>
<text text-anchor="start" x="891" y="-286.3" font-family="Times,serif" font-size="14.00" fill="#000000">myPhotoDescription :text</text>
<text text-anchor="start" x="891" y="-271.3" font-family="Times,serif" font-size="14.00" fill="#000000">myPhotoLocation :text</text>
<text text-anchor="start" x="891" y="-256.3" font-family="Times,serif" font-size="14.00" fill="#000000">myPhotoISO :varchar</text>
<text text-anchor="start" x="891" y="-241.3" font-family="Times,serif" font-size="14.00" fill="#000000">myPhotoAperture :varchar</text>
<text text-anchor="start" x="891" y="-226.3" font-family="Times,serif" font-size="14.00" fill="#000000">myPhotoShutterSpeed :varchar</text>
<text text-anchor="start" x="891" y="-211.3" font-family="Times,serif" font-size="14.00" fill="#000000">created_at :datetime</text>
<text text-anchor="start" x="891" y="-196.3" font-family="Times,serif" font-size="14.00" fill="#000000">updated_at :datetime</text>
</g>
<!-- PhotoGallery&#45;&gt;MyPhoto -->
<g id="edge4" class="edge">
<title>PhotoGallery&#45;&gt;MyPhoto</title>
<path fill="none" stroke="#415dfc" d="M976,-428.3172C976,-422.3135 976,-416.2251 976,-410.1235"/>
<ellipse fill="none" stroke="#415dfc" cx="976" cy="-432.4928" rx="4" ry="4"/>
<polygon fill="#415dfc" stroke="#415dfc" points="976.0001,-409.8551 980.5,-399.8551 976,-404.8551 976,-399.8551 976,-399.8551 976,-399.8551 976,-404.8551 971.5,-399.8552 976.0001,-409.8551 976.0001,-409.8551"/>
</g>
<!-- PostCategory&#45;&gt;Post -->
<g id="edge5" class="edge">
<title>PostCategory&#45;&gt;Post</title>
<path fill="none" stroke="#b53087" d="M772,-232.9167C772,-210.8372 772,-185.4828 772,-161.6841"/>
<ellipse fill="none" stroke="#b53087" cx="772" cy="-236.95" rx="4" ry="4"/>
<polygon fill="#b53087" stroke="#b53087" points="772.0001,-161.594 776.5,-151.594 772,-156.594 772,-151.594 772,-151.594 772,-151.594 772,-156.594 767.5,-151.5941 772.0001,-161.594 772.0001,-161.594"/>
</g>
<!-- ActiveStorage::Blob::Identifiable -->
<g id="node10" class="node">
<title>ActiveStorage::Blob::Identifiable</title>
<polygon fill="none" stroke="#000000" stroke-dasharray="1,5" points="1268.5,-537.5 1071.5,-537.5 1071.5,-501.5 1268.5,-501.5 1268.5,-537.5"/>
<text text-anchor="middle" x="1170" y="-515.8" font-family="Times,serif" font-size="14.00" fill="#000000">ActiveStorage::Blob::Identifiable</text>
</g>
<!-- ActiveStorage::Blob::Analyzable -->
<g id="node11" class="node">
<title>ActiveStorage::Blob::Analyzable</title>
<polygon fill="none" stroke="#000000" stroke-dasharray="1,5" points="1483.5,-537.5 1286.5,-537.5 1286.5,-501.5 1483.5,-501.5 1483.5,-537.5"/>
<text text-anchor="middle" x="1385" y="-515.8" font-family="Times,serif" font-size="14.00" fill="#000000">ActiveStorage::Blob::Analyzable</text>
</g>
<!-- ActiveStorage::Blob::Representable -->
<g id="node12" class="node">
<title>ActiveStorage::Blob::Representable</title>
<polygon fill="none" stroke="#000000" stroke-dasharray="1,5" points="1714,-537.5 1502,-537.5 1502,-501.5 1714,-501.5 1714,-537.5"/>
<text text-anchor="middle" x="1608" y="-515.8" font-family="Times,serif" font-size="14.00" fill="#000000">ActiveStorage::Blob::Representable</text>
</g>
<!-- ActiveStorage::Variant -->
<g id="node13" class="node">
<title>ActiveStorage::Variant</title>
<polygon fill="none" stroke="#000000" points="1732,-496.5 1732,-542.5 1874,-542.5 1874,-496.5 1732,-496.5"/>
<text text-anchor="middle" x="1803" y="-527.3" font-family="Times,serif" font-size="14.00" fill="#000000">ActiveStorage::Variant</text>
<polyline fill="none" stroke="#000000" points="1732,-519.5 1874,-519.5 "/>
<text text-anchor="middle" x="1803" y="-504.3" font-family="Times,serif" font-size="14.00" fill="#000000"> </text>
</g>
<!-- ActiveStorage::Filename -->
<g id="node14" class="node">
<title>ActiveStorage::Filename</title>
<polygon fill="none" stroke="#000000" points="1892,-496.5 1892,-542.5 2044,-542.5 2044,-496.5 1892,-496.5"/>
<text text-anchor="middle" x="1968" y="-527.3" font-family="Times,serif" font-size="14.00" fill="#000000">ActiveStorage::Filename</text>
<polyline fill="none" stroke="#000000" points="1892,-519.5 2044,-519.5 "/>
<text text-anchor="middle" x="1968" y="-504.3" font-family="Times,serif" font-size="14.00" fill="#000000"> </text>
</g>
<!-- ActiveStorage::Filename::Parameters -->
<g id="node15" class="node">
<title>ActiveStorage::Filename::Parameters</title>
<polygon fill="none" stroke="#000000" points="2062.5,-496.5 2062.5,-542.5 2283.5,-542.5 2283.5,-496.5 2062.5,-496.5"/>
<text text-anchor="middle" x="2173" y="-527.3" font-family="Times,serif" font-size="14.00" fill="#000000">ActiveStorage::Filename::Parameters</text>
<polyline fill="none" stroke="#000000" points="2062.5,-519.5 2283.5,-519.5 "/>
<text text-anchor="middle" x="2173" y="-504.3" font-family="Times,serif" font-size="14.00" fill="#000000"> </text>
</g>
<!-- ActiveStorage::Preview -->
<g id="node16" class="node">
<title>ActiveStorage::Preview</title>
<polygon fill="none" stroke="#000000" points="2302,-496.5 2302,-542.5 2448,-542.5 2448,-496.5 2302,-496.5"/>
<text text-anchor="middle" x="2375" y="-527.3" font-family="Times,serif" font-size="14.00" fill="#000000">ActiveStorage::Preview</text>
<polyline fill="none" stroke="#000000" points="2302,-519.5 2448,-519.5 "/>
<text text-anchor="middle" x="2375" y="-504.3" font-family="Times,serif" font-size="14.00" fill="#000000"> </text>
</g>
<!-- ActiveStorage::Attachment -->
<g id="node17" class="node">
<title>ActiveStorage::Attachment</title>
<path fill="none" stroke="#000000" d="M2478.5,-459C2478.5,-459 2619.5,-459 2619.5,-459 2625.5,-459 2631.5,-465 2631.5,-471 2631.5,-471 2631.5,-568 2631.5,-568 2631.5,-574 2625.5,-580 2619.5,-580 2619.5,-580 2478.5,-580 2478.5,-580 2472.5,-580 2466.5,-574 2466.5,-568 2466.5,-568 2466.5,-471 2466.5,-471 2466.5,-465 2472.5,-459 2478.5,-459"/>
<text text-anchor="middle" x="2549" y="-564.8" font-family="Times,serif" font-size="14.00" fill="#000000">ActiveStorage::Attachment</text>
<polyline fill="none" stroke="#000000" points="2466.5,-557 2631.5,-557 "/>
<text text-anchor="start" x="2474.5" y="-541.8" font-family="Times,serif" font-size="14.00" fill="#000000">id :integer</text>
<text text-anchor="start" x="2474.5" y="-526.8" font-family="Times,serif" font-size="14.00" fill="#000000">name :varchar</text>
<text text-anchor="start" x="2474.5" y="-511.8" font-family="Times,serif" font-size="14.00" fill="#000000">record_type :varchar</text>
<text text-anchor="start" x="2474.5" y="-496.8" font-family="Times,serif" font-size="14.00" fill="#000000">record_id :integer</text>
<text text-anchor="start" x="2474.5" y="-481.8" font-family="Times,serif" font-size="14.00" fill="#000000">blob_id :integer</text>
<text text-anchor="start" x="2474.5" y="-466.8" font-family="Times,serif" font-size="14.00" fill="#000000">created_at :datetime</text>
</g>
<!-- ActiveStorage::Blob -->
<g id="node18" class="node">
<title>ActiveStorage::Blob</title>
<path fill="none" stroke="#000000" d="M2662,-444C2662,-444 2772,-444 2772,-444 2778,-444 2784,-450 2784,-456 2784,-456 2784,-583 2784,-583 2784,-589 2778,-595 2772,-595 2772,-595 2662,-595 2662,-595 2656,-595 2650,-589 2650,-583 2650,-583 2650,-456 2650,-456 2650,-450 2656,-444 2662,-444"/>
<text text-anchor="middle" x="2717" y="-579.8" font-family="Times,serif" font-size="14.00" fill="#000000">ActiveStorage::Blob</text>
<polyline fill="none" stroke="#000000" points="2650,-572 2784,-572 "/>
<text text-anchor="start" x="2658" y="-556.8" font-family="Times,serif" font-size="14.00" fill="#000000">id :integer</text>
<text text-anchor="start" x="2658" y="-541.8" font-family="Times,serif" font-size="14.00" fill="#000000">key :varchar</text>
<text text-anchor="start" x="2658" y="-526.8" font-family="Times,serif" font-size="14.00" fill="#000000">filename :varchar</text>
<text text-anchor="start" x="2658" y="-511.8" font-family="Times,serif" font-size="14.00" fill="#000000">content_type :varchar</text>
<text text-anchor="start" x="2658" y="-496.8" font-family="Times,serif" font-size="14.00" fill="#000000">metadata :text</text>
<text text-anchor="start" x="2658" y="-481.8" font-family="Times,serif" font-size="14.00" fill="#000000">byte_size :bigint</text>
<text text-anchor="start" x="2658" y="-466.8" font-family="Times,serif" font-size="14.00" fill="#000000">checksum :varchar</text>
<text text-anchor="start" x="2658" y="-451.8" font-family="Times,serif" font-size="14.00" fill="#000000">created_at :datetime</text>
</g>
<!-- ActiveStorage::Current -->
<g id="node19" class="node">
<title>ActiveStorage::Current</title>
<polygon fill="none" stroke="#000000" points="2859.5,-271 2859.5,-317 3002.5,-317 3002.5,-271 2859.5,-271"/>
<text text-anchor="middle" x="2931" y="-301.8" font-family="Times,serif" font-size="14.00" fill="#000000">ActiveStorage::Current</text>
<polyline fill="none" stroke="#000000" points="2859.5,-294 3002.5,-294 "/>
<text text-anchor="middle" x="2931" y="-278.8" font-family="Times,serif" font-size="14.00" fill="#000000"> </text>
</g>
<!-- ActiveStorage::Variation -->
<g id="node20" class="node">
<title>ActiveStorage::Variation</title>
<polygon fill="none" stroke="#000000" points="3078,-496.5 3078,-542.5 3230,-542.5 3230,-496.5 3078,-496.5"/>
<text text-anchor="middle" x="3154" y="-527.3" font-family="Times,serif" font-size="14.00" fill="#000000">ActiveStorage::Variation</text>
<polyline fill="none" stroke="#000000" points="3078,-519.5 3230,-519.5 "/>
<text text-anchor="middle" x="3154" y="-504.3" font-family="Times,serif" font-size="14.00" fill="#000000"> </text>
</g>
<!-- Shrine -->
<g id="node21" class="node">
<title>Shrine</title>
<ellipse fill="none" stroke="#000000" cx="266" cy="-519.5" rx="33.5952" ry="18"/>
<text text-anchor="middle" x="266" y="-515.8" font-family="Times,serif" font-size="14.00" fill="#000000">Shrine</text>
</g>
<!-- Shrine&#45;&gt;ImageUploader -->
<g id="edge1" class="edge">
<title>Shrine&#45;&gt;ImageUploader</title>
<path fill="none" stroke="#000000" d="M266,-501.4276C266,-460.7723 266,-362.1577 266,-317.1228"/>
</g>
<!-- ActiveSupport::CurrentAttributes -->
<g id="node22" class="node">
<title>ActiveSupport::CurrentAttributes</title>
<ellipse fill="none" stroke="#000000" cx="2931" cy="-519.5" rx="128.8774" ry="18"/>
<text text-anchor="middle" x="2931" y="-515.8" font-family="Times,serif" font-size="14.00" fill="#000000">ActiveSupport::CurrentAttributes</text>
</g>
<!-- ActiveSupport::CurrentAttributes&#45;&gt;ActiveStorage::Current -->
<g id="edge7" class="edge">
<title>ActiveSupport::CurrentAttributes&#45;&gt;ActiveStorage::Current</title>
<path fill="none" stroke="#000000" d="M2931,-501.4276C2931,-460.7723 2931,-362.1577 2931,-317.1228"/>
</g>
</g>
</svg>
